<svg width="585" height="94" viewBox="0 0 585 94" fill="none" xmlns="http://www.w3.org/2000/svg">
<path d="M116.984 64V30.4H124.76V64H116.984ZM139.454 64V30.4H145.886L165.71 54.592H162.59V30.4H170.27V64H163.886L144.014 39.808H147.134V64H139.454ZM184.94 64V30.4H191.372L211.196 54.592H208.076V30.4H215.756V64H209.372L189.5 39.808H192.62V64H184.94ZM246.745 64.576C244.089 64.576 241.625 64.144 239.353 63.28C237.113 62.416 235.161 61.2 233.497 59.632C231.865 58.064 230.585 56.224 229.657 54.112C228.761 52 228.313 49.696 228.313 47.2C228.313 44.704 228.761 42.4 229.657 40.288C230.585 38.176 231.881 36.336 233.545 34.768C235.209 33.2 237.161 31.984 239.401 31.12C241.641 30.256 244.073 29.824 246.697 29.824C249.353 29.824 251.785 30.256 253.993 31.12C256.233 31.984 258.169 33.2 259.801 34.768C261.465 36.336 262.761 38.176 263.689 40.288C264.617 42.368 265.081 44.672 265.081 47.2C265.081 49.696 264.617 52.016 263.689 54.16C262.761 56.272 261.465 58.112 259.801 59.68C258.169 61.216 256.233 62.416 253.993 63.28C251.785 64.144 249.369 64.576 246.745 64.576ZM246.697 57.952C248.201 57.952 249.577 57.696 250.825 57.184C252.105 56.672 253.225 55.936 254.185 54.976C255.145 54.016 255.881 52.88 256.393 51.568C256.937 50.256 257.209 48.8 257.209 47.2C257.209 45.6 256.937 44.144 256.393 42.832C255.881 41.52 255.145 40.384 254.185 39.424C253.257 38.464 252.153 37.728 250.873 37.216C249.593 36.704 248.201 36.448 246.697 36.448C245.193 36.448 243.801 36.704 242.521 37.216C241.273 37.728 240.169 38.464 239.209 39.424C238.249 40.384 237.497 41.52 236.953 42.832C236.441 44.144 236.185 45.6 236.185 47.2C236.185 48.768 236.441 50.224 236.953 51.568C237.497 52.88 238.233 54.016 239.161 54.976C240.121 55.936 241.241 56.672 242.521 57.184C243.801 57.696 245.193 57.952 246.697 57.952ZM293.869 64.576C291.213 64.576 288.765 64.16 286.525 63.328C284.317 62.464 282.381 61.248 280.717 59.68C279.085 58.112 277.805 56.272 276.877 54.16C275.981 52.048 275.533 49.728 275.533 47.2C275.533 44.672 275.981 42.352 276.877 40.24C277.805 38.128 279.101 36.288 280.765 34.72C282.429 33.152 284.381 31.952 286.621 31.12C288.861 30.256 291.325 29.824 294.013 29.824C296.989 29.824 299.661 30.32 302.029 31.312C304.429 32.304 306.445 33.744 308.077 35.632L303.085 40.24C301.869 38.96 300.541 38.016 299.101 37.408C297.661 36.768 296.093 36.448 294.397 36.448C292.765 36.448 291.277 36.704 289.933 37.216C288.589 37.728 287.421 38.464 286.429 39.424C285.469 40.384 284.717 41.52 284.173 42.832C283.661 44.144 283.405 45.6 283.405 47.2C283.405 48.768 283.661 50.208 284.173 51.52C284.717 52.832 285.469 53.984 286.429 54.976C287.421 55.936 288.573 56.672 289.885 57.184C291.229 57.696 292.701 57.952 294.301 57.952C295.837 57.952 297.325 57.712 298.765 57.232C300.237 56.72 301.661 55.872 303.037 54.688L307.453 60.304C305.629 61.68 303.501 62.736 301.069 63.472C298.669 64.208 296.269 64.576 293.869 64.576ZM300.349 59.296V46.672H307.453V60.304L300.349 59.296ZM321.397 64V30.4H335.941C338.949 30.4 341.541 30.896 343.717 31.888C345.893 32.848 347.573 34.24 348.757 36.064C349.941 37.888 350.533 40.064 350.533 42.592C350.533 45.088 349.941 47.248 348.757 49.072C347.573 50.864 345.893 52.24 343.717 53.2C341.541 54.16 338.949 54.64 335.941 54.64H325.717L329.173 51.232V64H321.397ZM342.757 64L334.357 51.808H342.661L351.157 64H342.757ZM329.173 52.096L325.717 48.448H335.509C337.909 48.448 339.701 47.936 340.885 46.912C342.069 45.856 342.661 44.416 342.661 42.592C342.661 40.736 342.069 39.296 340.885 38.272C339.701 37.248 337.909 36.736 335.509 36.736H325.717L329.173 33.04V52.096ZM358.997 64L373.973 30.4H381.653L396.677 64H388.517L376.229 34.336H379.301L366.965 64H358.997ZM366.485 56.8L368.549 50.896H385.829L387.941 56.8H366.485ZM406.883 64V30.4H421.427C424.435 30.4 427.027 30.896 429.203 31.888C431.379 32.848 433.059 34.24 434.243 36.064C435.427 37.888 436.019 40.064 436.019 42.592C436.019 45.088 435.427 47.248 434.243 49.072C433.059 50.896 431.379 52.304 429.203 53.296C427.027 54.256 424.435 54.736 421.427 54.736H411.203L414.659 51.232V64H406.883ZM414.659 52.096L411.203 48.4H420.995C423.395 48.4 425.187 47.888 426.371 46.864C427.555 45.84 428.147 44.416 428.147 42.592C428.147 40.736 427.555 39.296 426.371 38.272C425.187 37.248 423.395 36.736 420.995 36.736H411.203L414.659 33.04V52.096ZM471.331 30.4H479.107V64H471.331V30.4ZM456.067 64H448.291V30.4H456.067V64ZM471.907 50.224H455.491V43.648H471.907V50.224ZM493.777 64V30.4H501.553V64H493.777ZM532.327 64.576C529.735 64.576 527.319 64.16 525.079 63.328C522.871 62.464 520.951 61.248 519.319 59.68C517.687 58.112 516.407 56.272 515.479 54.16C514.583 52.048 514.135 49.728 514.135 47.2C514.135 44.672 514.583 42.352 515.479 40.24C516.407 38.128 517.687 36.288 519.319 34.72C520.983 33.152 522.919 31.952 525.127 31.12C527.335 30.256 529.751 29.824 532.375 29.824C535.287 29.824 537.911 30.336 540.247 31.36C542.615 32.352 544.599 33.824 546.199 35.776L541.207 40.384C540.055 39.072 538.775 38.096 537.367 37.456C535.959 36.784 534.423 36.448 532.759 36.448C531.191 36.448 529.751 36.704 528.439 37.216C527.127 37.728 525.991 38.464 525.031 39.424C524.071 40.384 523.319 41.52 522.775 42.832C522.263 44.144 522.007 45.6 522.007 47.2C522.007 48.8 522.263 50.256 522.775 51.568C523.319 52.88 524.071 54.016 525.031 54.976C525.991 55.936 527.127 56.672 528.439 57.184C529.751 57.696 531.191 57.952 532.759 57.952C534.423 57.952 535.959 57.632 537.367 56.992C538.775 56.32 540.055 55.312 541.207 53.968L546.199 58.576C544.599 60.528 542.615 62.016 540.247 63.04C537.911 64.064 535.271 64.576 532.327 64.576ZM569.022 64.576C566.334 64.576 563.758 64.224 561.294 63.52C558.83 62.784 556.846 61.84 555.342 60.688L557.982 54.832C559.422 55.856 561.118 56.704 563.07 57.376C565.054 58.016 567.054 58.336 569.07 58.336C570.606 58.336 571.838 58.192 572.766 57.904C573.726 57.584 574.43 57.152 574.878 56.608C575.326 56.064 575.55 55.44 575.55 54.736C575.55 53.84 575.198 53.136 574.494 52.624C573.79 52.08 572.862 51.648 571.71 51.328C570.558 50.976 569.278 50.656 567.87 50.368C566.494 50.048 565.102 49.664 563.694 49.216C562.318 48.768 561.054 48.192 559.902 47.488C558.75 46.784 557.806 45.856 557.07 44.704C556.366 43.552 556.014 42.08 556.014 40.288C556.014 38.368 556.526 36.624 557.55 35.056C558.606 33.456 560.174 32.192 562.254 31.264C564.366 30.304 567.006 29.824 570.174 29.824C572.286 29.824 574.366 30.08 576.414 30.592C578.462 31.072 580.27 31.808 581.838 32.8L579.438 38.704C577.87 37.808 576.302 37.152 574.734 36.736C573.166 36.288 571.63 36.064 570.126 36.064C568.622 36.064 567.39 36.24 566.43 36.592C565.47 36.944 564.782 37.408 564.366 37.984C563.95 38.528 563.742 39.168 563.742 39.904C563.742 40.768 564.094 41.472 564.798 42.016C565.502 42.528 566.43 42.944 567.582 43.264C568.734 43.584 569.998 43.904 571.374 44.224C572.782 44.544 574.174 44.912 575.55 45.328C576.958 45.744 578.238 46.304 579.39 47.008C580.542 47.712 581.47 48.64 582.174 49.792C582.91 50.944 583.278 52.4 583.278 54.16C583.278 56.048 582.75 57.776 581.694 59.344C580.638 60.912 579.054 62.176 576.942 63.136C574.862 64.096 572.222 64.576 569.022 64.576Z" fill="black"/>
<path d="M27.5 90.5H30.5V80.5H27.5V84H24.5V87.5H27.5V90.5Z" fill="black"/>
<path fill-rule="evenodd" clip-rule="evenodd" d="M87.5 93.5V0H76V2.5H73V0H49V2.5H52V5.5H49V2.5H46V5.5H43V2.5H46V0H40V2.5H37V0H34V2.5H30.5V5.5H33V12H36.5V18.5H33.5V21.5H37V24.5H33.5V27.5H30.5V30.5H24.5V34H27.5V37H30.5V34H34V31.5H37V28.5H40V31.5H37V34.5H34V40.5H37V43.5H34V40.5H31V52.5H36.5V55.5V59H33.5V55.5H31V52.5H24.5V56H27.5V59.5H31V62.5H34V65.5H31H30.5V78H36.5V81H33.5V84H36.5V90.5H34V93.5H39V90.5H42V93.5H45V90.5H48V93.5H64V90.5H67V93.5H87.5ZM85 21.5H82V18.5H85V21.5ZM79 36.5H76V33.5H79V36.5ZM85 56.5H82V53.5H85V56.5ZM82 65.5H79V62.5H82V65.5ZM79 74.5H76V71.5H79V74.5ZM85 87.5H82V84.5H85V87.5ZM70 83.5H67V80.5H70V83.5ZM73 65.5H70V62.5H73V65.5ZM76 46.5H73V43.5H76V46.5ZM76 27.5H73V24.5H76V27.5ZM82 5.5H79V2.5H82V5.5ZM79 14.5H76V11.5H79V14.5ZM70 12.5H67V9.5H70V12.5ZM73 21.5H70V18.5H73V21.5ZM67 27.5H64V24.5H67V27.5ZM64 34.5H61V31.5H64V34.5ZM67 52.5H64V49.5H67V52.5ZM67 59.5H64V56.5H67V59.5ZM64 74.5H61V71.5H64V74.5ZM58 87.5H55V84.5H58V87.5ZM52 90H49V84.5H52V90ZM45 84.5H42V81.5H45V84.5ZM52 81.5H49V78.5H46V75.5H49V78.5H52V81.5ZM43 77.5H40V74.5H43V77.5ZM45 71.5H42V68.5H45V71.5ZM55 74.5H52V71.5H55V68.5H58V71.5H55V74.5ZM52 68.5H49V65.5H52V62.5H55V65.5H52V68.5ZM58 59.5H55V56.5H58V59.5ZM61 52.5H58V49.5H61V52.5ZM61 43.5H58V40.5H61V43.5ZM58 37.5H55V34.5H58V37.5ZM58 30.5H55V27.5H58V30.5ZM58 24.5H55V21.5H58V24.5ZM64 18.5H61V15.5H64V18.5ZM58 18.5H55V15.5H58V18.5ZM61 9.5H58V6.5H55V3.5H58V0.5H61V3.5H58V6.5H61V9.5ZM55 11.5H52V8.5H55V11.5ZM52 21.5H49V18.5H52V21.5ZM52 30.5H49V27.5H52V30.5ZM51 40.5H48V37.5H51V40.5ZM55 46.5H52V49.5H49V46.5H42V49.5H39V46.5H42V43.5H49V46.5H52V43.5H55V46.5ZM52 56.5H49V53.5H52V56.5ZM46 62.5H43V65.5H40V68.5H37V74.5H34V68.5H37V65.5H40V62.5H43V59.5H46V62.5ZM46 55.5H39.5V52.5H46V55.5ZM43 31H46V37.5H43V40.5H40V37.5H43V31ZM48.5 9H45.5V15.5H48.5V9ZM43 21.5H40V18.5H43V21.5ZM46 27.5H43V24.5H46V27.5ZM43 15.5H40V12.5H43V15.5ZM40 8.5H37V5.5H40V8.5ZM36 49.5H33V46.5H36V49.5Z" fill="black"/>
<path fill-rule="evenodd" clip-rule="evenodd" d="M27.5 65.5H30.5H31V62.5H27.5V59.5H24.5V56H21V59.5H24.5V62.5H27.5V65.5ZM24.5 68.5H27.5V65.5H24.5V68.5ZM21 68.5V71.5H24.5V68.5H21ZM21 68.5V65.5H18.5V68.5H21ZM30.5 0H27.5V2.5H30.5V0ZM24.5 0H21.5V2.5H18V7H21.5V2.5H24.5V0ZM33 12H30.5V8.5H27.5V15.5H24V18.5H27.5V15.5H33V12ZM33.5 24.5V21.5H30V24.5H33.5ZM24 37V40.5H21V37H18.5V40.5H21V43.5H24V40.5H27.5V37H24ZM3 0H6V2.5H3V0ZM0 11.5V8.5H3V11.5H0ZM27.5 90.5V93.5H24.5V90.5H27.5ZM24.5 90.5H21.5V87.5H24.5V90.5ZM24.5 84V80.5H21V84H24.5ZM18 87.5V93.5H12.5V90.5H15.5V87.5H18ZM3 87.5H0V84.5H3V87.5ZM3 55.5H0V52.5H3V55.5ZM24.5 9H21.5V12H24.5V9ZM21.5 46.5V50H27.5V46.5H21.5ZM21 53.5H18V50.5H21V53.5ZM27 77.5H24V74.5H27V77.5ZM21 77.5H18V74.5H21V77.5ZM15 83.5H12V80.5H15V83.5ZM12 77.5H9V74.5H12V77.5ZM9 84.5H6V81.5H9V84.5ZM6 81.5H3V78.5H6V81.5ZM6 71.5H3V68.5H6V71.5ZM15 68.5H12V65.5H15V68.5ZM15 59.5H12V56.5H15V59.5ZM9 62.5H6V59.5H9V62.5ZM9 52.5H6V49.5H9V52.5ZM15 52.5H12V49.5H15V52.5ZM18 46.5H15V43.5H18V46.5ZM21 33.5H18V30.5H21V33.5ZM15 40.5H12V37.5H15V40.5ZM6 43.5H3V40.5H6V43.5ZM9 27.5H6V24.5H9V27.5ZM18 24.5H15V21.5H18V24.5ZM18 18.5H21V21.5H18V18.5ZM18 15.5V18.5H15V15.5H18ZM15 30.5H12V27.5H15V30.5ZM27 27.5H24V24.5H27V27.5ZM15 5.5H12V2.5H15V5.5ZM9 15.5H6V12.5H9V15.5ZM12 12.5H9V9.5H12V12.5ZM18 11.5H15V8.5H18V11.5Z" fill="black"/>
<path fill-rule="evenodd" clip-rule="evenodd" d="M27.5 2.5V6H24.5V2.5H27.5Z" fill="black"/>
</svg>
